<?xml version="1.0" encoding="UTF-8" standalone="no"?>
<!-- Created with Inkscape (http://www.inkscape.org/) -->

<svg
   width="512"
   height="512"
   viewBox="0 0 512 512"
   version="1.1"
   id="svg1"
   inkscape:version="1.3.2 (091e20ef0f, 2023-11-25)"
   sodipodi:docname="chuckya.svg"
   xml:space="preserve"
   inkscape:export-filename="chuckya_emoji.png"
   inkscape:export-xdpi="96"
   inkscape:export-ydpi="96"
   xmlns:inkscape="http://www.inkscape.org/namespaces/inkscape"
   xmlns:sodipodi="http://sodipodi.sourceforge.net/DTD/sodipodi-0.dtd"
   xmlns:xlink="http://www.w3.org/1999/xlink"
   xmlns="http://www.w3.org/2000/svg"
   xmlns:svg="http://www.w3.org/2000/svg"><sodipodi:namedview
     id="namedview1"
     pagecolor="#505050"
     bordercolor="#eeeeee"
     borderopacity="1"
     inkscape:showpageshadow="0"
     inkscape:pageopacity="0"
     inkscape:pagecheckerboard="0"
     inkscape:deskcolor="#505050"
     inkscape:document-units="px"
     inkscape:zoom="1.1697646"
     inkscape:cx="212.4359"
     inkscape:cy="251.76005"
     inkscape:window-width="1920"
     inkscape:window-height="1050"
     inkscape:window-x="0"
     inkscape:window-y="0"
     inkscape:window-maximized="1"
     inkscape:current-layer="layer1" /><defs
     id="defs1"><clipPath
       clipPathUnits="userSpaceOnUse"
       id="clipPath3"><use
         x="0"
         y="0"
         xlink:href="#g2"
         id="use3" /></clipPath><linearGradient
       id="paint0_linear_549_34"
       x1="37.0692"
       y1="0"
       x2="37.0692"
       y2="79"
       gradientUnits="userSpaceOnUse"><stop
         stop-color="#6364FF"
         id="stop2" /><stop
         offset="1"
         stop-color="#563ACC"
         id="stop3" /></linearGradient></defs><g
     inkscape:label="Layer 1"
     inkscape:groupmode="layer"
     id="layer1"
     transform="matrix(1.0650364,0,0,1.0650364,-11.989412,-3.9033242)"><rect
       style="fill:#818181;fill-opacity:1;fill-rule:evenodd;stroke:#000000;stroke-width:20;stroke-dasharray:none;stroke-dashoffset:320;stroke-opacity:1"
       id="rect4"
       width="158.95229"
       height="147.10339"
       x="355.62006"
       y="-58.467571"
       transform="rotate(54.515103)"
       inkscape:label="little stubby leg thing" /><circle
       style="fill:#d83e42;fill-opacity:1;fill-rule:evenodd;stroke:#000000;stroke-width:21.7043;stroke-dasharray:none;stroke-dashoffset:320;stroke-opacity:1"
       id="path3-5"
       cx="208.00014"
       cy="62.444405"
       r="62.826191"
       inkscape:label="little red thing on top of its head"
       transform="rotate(31.799119)" /><circle
       style="fill:#7a56ac;fill-opacity:1;fill-rule:evenodd;stroke:#000000;stroke-width:27.4322;stroke-dashoffset:320;stroke-opacity:1"
       id="path1"
       cx="262.40732"
       cy="266.15933"
       r="152.20422"
       inkscape:label="body" /><ellipse
       style="fill:#000000;fill-opacity:0.182957;fill-rule:evenodd;stroke:none;stroke-width:15.9492;stroke-dasharray:none;stroke-dashoffset:320;stroke-opacity:1"
       id="path4"
       cx="292.26505"
       cy="175.39009"
       rx="72.145218"
       ry="23.821596" /><g
       id="g4"
       inkscape:label="eye left"
       transform="matrix(1.2394257,0,0,1.2394257,-54.383693,-19.296136)"><path
         id="rect1"
         style="fill:#f8f7fb;fill-rule:evenodd;stroke-width:81.2541;stroke-dashoffset:320"
         d="m 276.59697,204.80582 c -1.68145,18.09473 -96.4819,9.3003 -95.40369,-7.38981 1.18018,-18.26888 97.1713,-11.63238 95.40369,7.38981 z"
         sodipodi:nodetypes="sss" /><path
         id="rect1-5"
         style="fill:#f8f7fb;fill-rule:evenodd;stroke-width:81.2541;stroke-dashoffset:320"
         d="m 275.54615,200.57139 c 10.85068,14.5777 -65.51367,71.43676 -75.87352,58.3068 -11.33983,-14.37196 64.46666,-73.63168 75.87352,-58.3068 z"
         sodipodi:nodetypes="sss" /></g><g
       id="g3"
       clip-path="url(#clipPath3)"
       transform="matrix(1.2146422,0,0,1.2146422,-58.736691,-13.118422)"
       inkscape:label="eye right"><g
         inkscape:label="Clip"
         id="g2"><ellipse
           style="fill:#f8f7fb;fill-opacity:0;fill-rule:evenodd;stroke:none;stroke-width:65.8469;stroke-dashoffset:320;stroke-opacity:1"
           id="path2"
           cx="264.2908"
           cy="230.59961"
           rx="114.33025"
           ry="113.89953" /></g><path
         id="rect1-2"
         style="fill:#f8f7fb;fill-rule:evenodd;stroke-width:81.2541;stroke-dashoffset:320"
         d="m 316.35481,205.6664 c 2.30393,18.02606 96.74505,5.9703 95.0924,-10.67275 -1.80897,-18.21736 -97.51442,-8.27723 -95.0924,10.67275 z"
         sodipodi:nodetypes="sss" /><path
         id="rect1-5-9"
         style="fill:#f8f7fb;fill-rule:evenodd;stroke-width:81.2541;stroke-dashoffset:320"
         d="m 317.25909,201.39828 c -10.34193,14.94292 67.93628,69.13693 77.83754,55.65781 10.83788,-14.75417 -66.96551,-71.36663 -77.83754,-55.65781 z"
         sodipodi:nodetypes="sss" /></g><g
       id="g5"
       inkscape:label="right arm"
       transform="matrix(1.2466488,-0.2091829,0.2091829,1.2466488,-100.80893,45.944267)"><rect
         style="fill:#7955ab;fill-opacity:1;fill-rule:evenodd;stroke:#000000;stroke-width:14.7072;stroke-dasharray:none;stroke-dashoffset:320;stroke-opacity:1"
         id="rect2-5"
         width="122.58743"
         height="52.790192"
         x="185.85587"
         y="313.26746"
         transform="matrix(0.14180972,0.98989394,0.95931388,-0.28234177,0,0)"
         ry="26.395096"
         inkscape:label="right arm" /><circle
         style="fill:#d83e42;fill-opacity:1;fill-rule:evenodd;stroke:#000000;stroke-width:15.4799;stroke-dasharray:none;stroke-dashoffset:320;stroke-opacity:1"
         id="path3-2"
         cx="355.52832"
         cy="103.54681"
         r="44.808678"
         inkscape:label="right hand" /></g><g
       id="g6"
       inkscape:label="left arm"
       transform="matrix(1.2038144,0.34290556,-0.34290556,1.2038144,0.063338,-92.352778)"><rect
         style="fill:#7955ab;fill-opacity:1;fill-rule:evenodd;stroke:#000000;stroke-width:14.8737;stroke-dasharray:none;stroke-dashoffset:320;stroke-opacity:1"
         id="rect2"
         width="122.47915"
         height="54.040321"
         x="27.581551"
         y="-253.62845"
         transform="matrix(-0.14560101,0.98934339,-0.96132589,-0.27541339,0,0)"
         ry="27.020161"
         inkscape:label="left arm" /><circle
         style="fill:#d83e42;fill-opacity:1;fill-rule:evenodd;stroke:#000000;stroke-width:15.8795;stroke-dasharray:none;stroke-dashoffset:320;stroke-opacity:1"
         id="path3"
         cx="209.21909"
         cy="101.3404"
         r="45.965439"
         inkscape:label="left hand" /></g><g
       style="fill:none;stroke:none;stroke-width:0.999874;stroke-dasharray:none;stroke-opacity:1"
       id="g1"
       transform="matrix(1.8440545,0,0.56635392,1.6189242,205.73202,10.288225)"
       inkscape:label="mastodon"><path
         d="M 73.8393,17.4898 C 72.6973,9.00165 65.2994,2.31235 56.5296,1.01614 55.05,0.797115 49.4441,0 36.4582,0 h -0.097 C 23.3717,0 20.585,0.797115 19.1054,1.01614 10.5798,2.27644 2.79399,8.28712 0.904997,16.8758 -0.00358524,21.1056 -0.100549,25.7949 0.0682394,30.0965 0.308852,36.2651 0.355538,42.423 0.91577,48.5665 c 0.3873,4.0809 1.06295,8.1292 2.02186,12.1147 1.79562,7.3608 9.06427,13.4864 16.18567,15.9854 7.6245,2.6062 15.8241,3.0389 23.6806,1.2496 0.8643,-0.2011 1.7178,-0.4345 2.5606,-0.7002 1.9105,-0.6068 4.1478,-1.2855 5.7926,-2.4775 0.0226,-0.0168 0.0411,-0.0384 0.0541,-0.0632 0.0131,-0.0249 0.0204,-0.0524 0.0213,-0.0805 v -5.9532 c -4e-4,-0.0262 -0.0066,-0.052 -0.0183,-0.0755 -0.0117,-0.0235 -0.0284,-0.0441 -0.0491,-0.0603 -0.0207,-0.0162 -0.0447,-0.0275 -0.0703,-0.0332 -0.0256,-0.0057 -0.0522,-0.0056 -0.0777,3e-4 -5.0336,1.2021 -10.1917,1.8048 -15.3669,1.7953 -8.9063,0 -11.3016,-4.2262 -11.9876,-5.9856 -0.5513,-1.5206 -0.9014,-3.1067 -1.0414,-4.718 -0.0015,-0.0271 0.0035,-0.0541 0.0145,-0.0789 0.0109,-0.0248 0.0276,-0.0466 0.0486,-0.0637 0.021,-0.0172 0.0457,-0.0291 0.0722,-0.0349 0.0265,-0.0058 0.0539,-0.0053 0.0802,0.0015 4.9497,1.194 10.0237,1.7967 15.1155,1.7953 1.2246,0 2.4456,0 3.6702,-0.0323 5.1211,-0.1436 10.5187,-0.4057 15.5572,-1.3895 0.1257,-0.0252 0.2514,-0.0467 0.3591,-0.079 7.9474,-1.5261 15.5106,-6.3159 16.2791,-18.445 0.0287,-0.4775 0.1006,-5.0017 0.1006,-5.4972 0.0035,-1.684 0.5422,-11.946 -0.0791,-18.2511 z"
         fill="url(#paint0_linear_549_34)"
         id="path1-2"
         style="fill:url(#paint0_linear_549_34);stroke:#000000;stroke-width:8.18228;stroke-dasharray:none;stroke-opacity:1" /><path
         d="M 61.2484,27.0263 V 48.114 H 52.8916 V 27.6475 c 0,-4.3087 -1.7956,-6.5062 -5.4479,-6.5062 -4.015,0 -6.026,2.5996 -6.026,7.7342 V 40.0782 H 33.1111 V 28.8755 c 0,-5.1346 -2.0146,-7.7342 -6.0296,-7.7342 -3.6308,0 -5.4444,2.1975 -5.4444,6.5062 V 48.114 H 13.2839 V 27.0263 c 0,-4.3087 1.1001,-7.7317 3.3004,-10.2691 2.2696,-2.5314 5.2468,-3.8312 8.9421,-3.8312 4.2772,0 7.5093,1.6445 9.6641,4.9299 l 2.0793,3.4901 2.0829,-3.4901 c 2.1547,-3.2854 5.3868,-4.9299 9.6568,-4.9299 3.6918,0 6.6689,1.2998 8.9458,3.8312 2.1978,2.535 3.2955,5.958 3.2931,10.2691 z"
         fill="#ffffff"
         id="path2-7"
         style="stroke:none;stroke-width:0.999874;stroke-dasharray:none;stroke-opacity:1" /></g></g></svg>
